<svg width="60" height="60" xmlns="http://www.w3.org/2000/svg" version="1.1" xml:space="preserve">
 <g>
  <title>Layer 1</title>
  <path stroke="#c70039" fill="#f4d03f" d="m38.4657,4l-28.9657,0l0,54l42,0l0,-40.8726l-13.0343,-13.1274zm-3.94443,27.9c0,0.4977 -0.40034,0.9 -0.89362,0.9l-8.93617,0c-0.49328,0 -0.89362,-0.4023 -0.89362,-0.9s0.40034,-0.9 0.89362,-0.9l8.93617,0c0.49328,0 0.89362,0.4023 0.89362,0.9zm-16.29779,-6.7689l0.28596,-0.6669c0.26004,-0.6066 0.68719,-1.0863 1.23498,-1.3869l1.96953,-0.9783c-0.86591,-0.5598 -1.48966,-1.4022 -1.8614,-2.5137c-0.61123,-0.3753 -0.99638,-1.0422 -0.99638,-1.7856l0,-0.6003c0,-0.6012 0.25826,-1.1637 0.69523,-1.557c0.08579,-0.5517 0.22698,-1.0701 0.42089,-1.5471c0.09115,-0.2223 0.168,-0.3888 0.22966,-0.5238c0.04111,-0.09 0.09294,-0.2016 0.10009,-0.2331c0.00268,-0.0288 -0.00179,-0.1377 -0.07685,-0.5157c-0.05809,-0.2943 -0.09651,-0.5643 -0.12332,-0.7956c-0.03306,-0.2898 0.05809,-0.5805 0.24932,-0.7965c0.40034,-0.45 1.18047,-0.4293 1.554,0.0504c0.06791,0.0873 0.20643,0.2295 0.47719,0.4131c0.45753,0.3114 1.07949,0.4518 1.73094,0.3942c0.13136,-0.0108 0.2654,-0.0162 0.40302,-0.0162c3.48153,0 4.63162,1.8477 4.95064,3.5559c0.44681,0.3942 0.70953,0.9612 0.70953,1.5705l0,0.6003c0,0.7434 -0.38515,1.4103 -0.99638,1.7856c-0.37353,1.116 -1.00085,1.9602 -1.87213,2.5209l1.89626,0.9747c0.56477,0.2853 1.01426,0.7632 1.29306,1.3779l0.3074,0.6768l-0.6023,0.4311c-1.67553,1.2006 -3.64149,1.8342 -5.68787,1.8342c-2.05353,0 -4.02574,-0.6381 -5.70485,-1.8468l-0.58621,-0.4221zm2.89353,6.7689c0,0.234 -0.0983,0.468 -0.25915,0.639c-0.16979,0.162 -0.39319,0.261 -0.63447,0.261s-0.47362,-0.099 -0.63447,-0.27c-0.16085,-0.1629 -0.25915,-0.396 -0.25915,-0.63c0,-0.2349 0.0983,-0.4689 0.25915,-0.639c0.3217,-0.324 0.9383,-0.333 1.26894,0c0.16085,0.1701 0.25915,0.4041 0.25915,0.639zm-1.78723,4.5c0,-0.4977 0.40034,-0.9 0.89362,-0.9l15.19149,0c0.49328,0 0.89362,0.4023 0.89362,0.9s-0.40034,0.9 -0.89362,0.9l-15.19149,0c-0.49328,0 -0.89362,-0.4023 -0.89362,-0.9zm4.6343,10.5894c-0.0277,0.8262 -0.93383,1.1358 -1.5254,0.6363c-0.83553,-0.7056 -1.67196,-1.4103 -2.50749,-2.1159c-0.88468,-0.747 0.38694,-2.0133 1.26357,-1.2735c0.36996,0.3123 0.73991,0.6237 1.10898,0.936c0.23949,-2.0349 0.89809,-3.9969 2.856,-5.0238c1.02051,-0.5346 1.92485,1.0188 0.90166,1.5543c-1.93915,1.0179 -2.03209,3.3363 -2.09732,5.2866zm13.36047,-1.3563c-0.21983,-0.3033 -3.05974,1.0899 -3.87204,0.7947c-0.63715,-0.2313 -1.11523,-0.5265 -1.51647,-0.9603c-1.89626,1.0359 -4.05345,1.5966 -5.7254,-0.2331c-0.77834,-0.8523 0.48166,-2.1285 1.26357,-1.2726c1.3306,1.4571 2.98468,0.3321 4.25004,-0.45c0.40928,-0.2529 0.98834,-0.0981 1.22247,0.3231c0.924,1.6587 3.15894,-0.2178 4.46094,-0.1188c0.69077,0.0531 1.08038,0.4878 1.45838,1.0089c0.68272,0.9387 -0.86949,1.8351 -1.54149,0.9081zm3.19289,-8.5941c-0.16979,0.162 -0.40213,0.261 -0.63447,0.261c-0.23234,0 -0.46468,-0.099 -0.63447,-0.261c-0.16979,-0.171 -0.25915,-0.396 -0.25915,-0.639c0,-0.2439 0.0983,-0.4689 0.25915,-0.639c0.33957,-0.333 0.92936,-0.333 1.26894,0c0.16085,0.1701 0.25915,0.4041 0.25915,0.639c0,0.243 -0.08936,0.468 -0.25915,0.639zm4.46809,-0.009c-0.16979,0.171 -0.40213,0.27 -0.63447,0.27c-0.23234,0 -0.46468,-0.099 -0.63447,-0.261c-0.16979,-0.171 -0.25915,-0.396 -0.25915,-0.639c0,-0.2439 0.0983,-0.4689 0.25915,-0.639c0.33957,-0.333 0.92936,-0.333 1.26894,0c0.16085,0.1701 0.25915,0.4041 0.25915,0.639c0,0.234 -0.08936,0.459 -0.25915,0.63zm-0.63447,-4.23l-6.25532,0c-0.49328,0 -0.89362,-0.4023 -0.89362,-0.9s0.40034,-0.9 0.89362,-0.9l6.25532,0c0.49328,0 0.89362,0.4023 0.89362,0.9s-0.40034,0.9 -0.89362,0.9zm-7.14894,-14.4l0,-12.6l12.51064,12.6l-12.51064,0z" id="svg_1"/>
  <g id="svg_2"/>
  <g id="svg_3"/>
  <g id="svg_4"/>
  <g id="svg_5"/>
  <g id="svg_6"/>
  <g id="svg_7"/>
  <g id="svg_8"/>
  <g id="svg_9"/>
  <g id="svg_10"/>
  <g id="svg_11"/>
  <g id="svg_12"/>
  <g id="svg_13"/>
  <g id="svg_14"/>
  <g id="svg_15"/>
  <g id="svg_16"/>
 </g>

</svg>